<?xml version="1.0" encoding="utf-8"?>
<!DOCTYPE svg PUBLIC "-//W3C//DTD SVG 1.1//EN" "http://www.w3.org/Graphics/SVG/1.1/DTD/svg11.dtd">
<svg version="1.1" xmlns="http://www.w3.org/2000/svg" xmlns:xlink="http://www.w3.org/1999/xlink" xml:space="preserve">
<path fill="#ED1C24" d="M14.066,24.927c5.408-5.021,14.684-5.427,19.559-1.302c0.438-4.563,0.554-9.96,5.875-12.813
	c6.063-3.25,19.563-4.75,25.813-0.5c7.639,5.194,5.705,15.226,6,13.938c5.688-1.563,13.063-0.875,17.563,5.625
	S95.25,41.458,93.625,50c-1.368,7.194-6.188,8.813-9.875,10.313c3.625,4.625,4.727,7.139,3.438,13.938
	c-2.063,10.875-13.319,18.492-22.25,17.875c-7.5-0.519-12.813-9.25-14.938-11.813c-1.813,3.375-5.946,9.816-13.375,11.438
	c-13.75,3-24.75-12.375-25.875-18s4.063-11.438,6.314-14.676c-2.001-0.699-6.3-1.741-9.814-7.159
	C0.563,41.603,7.941,30.615,14.066,24.927z"/>
<path fill="#FBB03B" d="M39.333,49.925c0-4.175,6.538-9.604,12.667-8.258c6.834,1.5,12.274,1.833,11.667,11
	c-0.458,6.917-8.167,10.649-14.078,9.5C44.91,61.257,39.333,54.684,39.333,49.925z"/>
</svg>
